<svg width="1024" height="1024" viewBox="0 0 1024 1024" fill="none" xmlns="http://www.w3.org/2000/svg">
  <defs>
    <linearGradient id="bg" x1="116" y1="100" x2="908" y2="916" gradientUnits="userSpaceOnUse">
      <stop stop-color="#101414"/>
      <stop offset="0.5" stop-color="#17372F"/>
      <stop offset="1" stop-color="#08110F"/>
    </linearGradient>
    <radialGradient id="orb" cx="0" cy="0" r="1" gradientUnits="userSpaceOnUse" gradientTransform="translate(774 250) rotate(148) scale(362 316)">
      <stop stop-color="#8EF0B6"/>
      <stop offset="1" stop-color="#8EF0B6" stop-opacity="0"/>
    </radialGradient>
    <linearGradient id="paper" x1="368" y1="244" x2="706" y2="818" gradientUnits="userSpaceOnUse">
      <stop stop-color="#F7FFF8"/>
      <stop offset="1" stop-color="#D7F2E0"/>
    </linearGradient>
    <linearGradient id="ribbon" x1="292" y1="390" x2="758" y2="660" gradientUnits="userSpaceOnUse">
      <stop stop-color="#47D99B"/>
      <stop offset="1" stop-color="#0D8C78"/>
    </linearGradient>
  </defs>

  <rect x="80" y="80" width="864" height="864" rx="210" fill="url(#bg)"/>
  <rect x="80" y="80" width="864" height="864" rx="210" fill="url(#orb)"/>

  <path d="M352 242C352 218.804 370.804 200 394 200H614L714 300V792C714 815.196 695.196 834 672 834H394C370.804 834 352 815.196 352 792V242Z" fill="url(#paper)"/>
  <path d="M614 200V258C614 281.196 632.804 300 656 300H714" fill="#C8EED8"/>

  <path d="M302 616C380 486 434 422 466 422C494 422 522 472 552 572C586 452 630 392 684 392C742 392 788 454 822 576" stroke="url(#ribbon)" stroke-width="56" stroke-linecap="round" stroke-linejoin="round"/>
  <path d="M306 614C382 704 448 760 504 760C558 760 624 716 700 628" stroke="#8FE7B2" stroke-width="30" stroke-linecap="round" stroke-linejoin="round" opacity="0.82"/>

  <path d="M446 330H590" stroke="#164C43" stroke-width="34" stroke-linecap="round" opacity="0.22"/>
  <path d="M446 378H654" stroke="#164C43" stroke-width="22" stroke-linecap="round" opacity="0.16"/>
  <path d="M446 746H622" stroke="#164C43" stroke-width="28" stroke-linecap="round" opacity="0.22"/>
</svg>
